<svg width="41" height="41" viewBox="0 0 41 41" fill="none" xmlns="http://www.w3.org/2000/svg">
<path fill-rule="evenodd" clip-rule="evenodd" d="M20.5013 0.916626C9.68543 0.916626 0.917969 9.68408 0.917969 20.5C0.917969 24.2012 1.94609 27.6675 3.73405 30.6206L1.98722 36.5583C1.88692 36.8992 1.88032 37.2608 1.96811 37.6052C2.05591 37.9495 2.23485 38.2639 2.48612 38.5151C2.7374 38.7664 3.05173 38.9454 3.39608 39.0331C3.74042 39.1209 4.10206 39.1143 4.44297 39.014L10.3806 37.2672C13.433 39.1141 16.9336 40.0881 20.5013 40.0833C31.3172 40.0833 40.0846 31.3158 40.0846 20.5C40.0846 9.68408 31.3172 0.916626 20.5013 0.916626ZM16.0716 24.9317C20.0333 28.8914 23.8148 29.4143 25.1504 29.4633C27.1812 29.5377 29.1591 27.9867 29.9287 26.187C30.0259 25.9631 30.0611 25.7172 30.0308 25.475C30.0005 25.2329 29.9057 25.0033 29.7564 24.8103C28.6832 23.4394 27.2321 22.4544 25.8143 21.4752C25.5182 21.2705 25.1545 21.1884 24.7992 21.2461C24.444 21.3038 24.1248 21.4968 23.9088 21.7846L22.7338 23.5765C22.672 23.6728 22.5758 23.7419 22.4647 23.7696C22.3537 23.7972 22.2363 23.7814 22.1365 23.7253C21.3395 23.269 20.1782 22.4935 19.3439 21.6593C18.5097 20.825 17.7812 19.7166 17.3719 18.9705C17.3211 18.8757 17.3065 18.7657 17.3306 18.661C17.3547 18.5562 17.416 18.4637 17.5031 18.4006L19.3126 17.0572C19.5708 16.8327 19.7375 16.521 19.7808 16.1816C19.8241 15.8421 19.7411 15.4986 19.5476 15.2164C18.6703 13.9317 17.648 12.2985 16.1656 11.2155C15.9742 11.0769 15.7501 10.9904 15.5153 10.9647C15.2804 10.9389 15.0429 10.9747 14.8261 11.0686C13.0244 11.8402 11.4656 13.8181 11.54 15.8528C11.5889 17.1884 12.1118 20.97 16.0716 24.9317Z" fill="#004D43"/>
</svg>
