<svg width="40" height="40" viewBox="0 0 40 40" fill="none" xmlns="http://www.w3.org/2000/svg">
<path fill-rule="evenodd" clip-rule="evenodd" d="M20 40C31.0457 40 40 31.0457 40 20C40 8.95432 31.0457 0 20 0C8.95432 0 0 8.95432 0 20C0 31.0457 8.95432 40 20 40ZM28.7909 12.7778C28.945 11.0257 27.0949 11.7471 27.0949 11.7471C25.7288 12.3126 24.32 12.8873 22.8959 13.4682C18.4803 15.2693 13.9185 17.1301 10.0324 18.9614C7.92532 19.7344 9.15876 20.5074 9.15876 20.5074L12.4993 21.538C14.0411 22.0018 14.8634 21.4865 14.8634 21.4865L22.0584 16.591C24.628 14.839 24.0114 16.2819 23.3946 16.9002L17.9983 22.0533C17.176 22.7747 17.5872 23.3931 17.947 23.7023C18.9665 24.6019 21.4746 26.2478 22.5696 26.9664C22.8546 27.1533 23.0438 27.2775 23.0862 27.3094C23.3432 27.5156 24.7308 28.4431 25.6559 28.237C26.581 28.0309 26.6838 26.8457 26.6838 26.8457L27.9172 18.7553C28.1022 17.3508 28.3144 16.0008 28.4839 14.9226C28.644 13.9041 28.7659 13.1282 28.7909 12.7778Z" fill="#004D43"/>
</svg>
