<svg width="31" height="33" viewBox="0 0 31 33" fill="none" xmlns="http://www.w3.org/2000/svg">
<path fill-rule="evenodd" clip-rule="evenodd" d="M0.629032 9.49387C0.72383 9.38896 0.858611 9.3291 1 9.3291H29.7233C29.8647 9.3291 29.9995 9.38896 30.0943 9.49387C30.1891 9.59877 30.2351 9.73891 30.2208 9.87958L28.5966 25.8862C28.5966 25.8862 28.5966 25.8862 28.5966 25.8862C28.4175 27.6534 27.5888 29.2911 26.271 30.482C24.9533 31.673 23.2404 32.3324 21.4642 32.3324H9.25916C7.48297 32.3324 5.77003 31.673 4.45229 30.482C3.13456 29.2911 2.30584 27.6534 2.12672 25.8862C2.12672 25.8862 2.12672 25.8862 2.12672 25.8862L0.502556 9.87958C0.488283 9.73891 0.534234 9.59877 0.629032 9.49387ZM1.5533 10.3291L3.12161 25.7853L3.12162 25.7854C3.27574 27.306 3.98887 28.7153 5.12281 29.7401C6.25674 30.765 7.73075 31.3324 9.25918 31.3324H21.4642C22.9926 31.3324 24.4666 30.765 25.6005 29.7401C26.7345 28.7153 27.4476 27.306 27.6017 25.7854L27.6017 25.7853L29.17 10.3291H1.5533Z" fill="black"/>
<path fill-rule="evenodd" clip-rule="evenodd" d="M15.3614 1.5C13.7416 1.5 12.1881 2.14347 11.0428 3.28885C9.89737 4.43422 9.25391 5.98769 9.25391 7.6075V9.82917C9.25391 10.1053 9.03005 10.3292 8.75391 10.3292C8.47776 10.3292 8.25391 10.1053 8.25391 9.82917V7.6075C8.25391 5.72247 9.00273 3.91465 10.3356 2.58174C11.6686 1.24882 13.4764 0.5 15.3614 0.5C17.2464 0.5 19.0543 1.24882 20.3872 2.58174C21.7201 3.91465 22.4689 5.72247 22.4689 7.6075V9.83C22.4689 10.1061 22.245 10.33 21.9689 10.33C21.6928 10.33 21.4689 10.1061 21.4689 9.83V7.6075C21.4689 5.98769 20.8254 4.43422 19.6801 3.28885C18.5347 2.14347 16.9812 1.5 15.3614 1.5Z" fill="black"/>
</svg>
