<svg width="30" height="30" viewBox="0 0 30 30" fill="none" xmlns="http://www.w3.org/2000/svg">
<path fill-rule="evenodd" clip-rule="evenodd" d="M15.1667 1.5C7.61878 1.5 1.5 7.61878 1.5 15.1667C1.5 22.7146 7.61878 28.8333 15.1667 28.8333C22.7146 28.8333 28.8333 22.7146 28.8333 15.1667C28.8333 7.61878 22.7146 1.5 15.1667 1.5ZM0.5 15.1667C0.5 7.06649 7.06649 0.5 15.1667 0.5C23.2668 0.5 29.8333 7.06649 29.8333 15.1667C29.8333 23.2668 23.2668 29.8333 15.1667 29.8333C7.06649 29.8333 0.5 23.2668 0.5 15.1667Z" fill="#004D43"/>
<path fill-rule="evenodd" clip-rule="evenodd" d="M15.1665 8.83337C15.4426 8.83337 15.6665 9.05723 15.6665 9.33337V14.6667H22.6665C22.9426 14.6667 23.1665 14.8906 23.1665 15.1667C23.1665 15.4429 22.9426 15.6667 22.6665 15.6667H15.5832C15.3401 15.6667 15.1069 15.5701 14.935 15.3982C14.7631 15.2263 14.6665 14.9932 14.6665 14.75V9.33337C14.6665 9.05723 14.8904 8.83337 15.1665 8.83337Z" fill="#004D43"/>
</svg>
