<svg width="17" height="19" viewBox="0 0 17 19" fill="none" xmlns="http://www.w3.org/2000/svg">
<path opacity="0.5" fill-rule="evenodd" clip-rule="evenodd" d="M9.37375 1.875H6.87375C6.70799 1.875 6.54902 1.94085 6.43181 2.05806C6.3146 2.17527 6.24875 2.33424 6.24875 2.5V3.125H9.99875V2.5C9.99875 2.33424 9.9329 2.17527 9.81569 2.05806C9.69848 1.94085 9.53951 1.875 9.37375 1.875ZM11.8737 3.125V2.5C11.8737 1.83696 11.6104 1.20107 11.1415 0.732233C10.6727 0.263392 10.0368 0 9.37375 0H6.87375C6.21071 0 5.57482 0.263392 5.10598 0.732233C4.63714 1.20107 4.37375 1.83696 4.37375 2.5V3.125H0.9375C0.688859 3.125 0.450403 3.22377 0.274587 3.39959C0.0987719 3.5754 0 3.81386 0 4.0625C0 4.31114 0.0987719 4.5496 0.274587 4.72541C0.450403 4.90123 0.688859 5 0.9375 5H1.3275L1.72375 14.5312C1.76407 15.4981 2.17654 16.4118 2.87495 17.0816C3.57335 17.7513 4.50361 18.1252 5.47125 18.125H10.7775C11.7449 18.1249 12.6749 17.7509 13.373 17.0812C14.0711 16.4114 14.4834 15.4978 14.5237 14.5312L14.9212 5H15.3112C15.5599 5 15.7983 4.90123 15.9742 4.72541C16.15 4.5496 16.2487 4.31114 16.2487 4.0625C16.2487 3.81386 16.15 3.5754 15.9742 3.39959C15.7983 3.22377 15.5599 3.125 15.3112 3.125H11.8737ZM13.0437 5H3.20375L3.5975 14.4525C3.6175 14.936 3.82367 15.3931 4.17289 15.7281C4.52211 16.0631 4.98733 16.2501 5.47125 16.25H10.7775C11.2612 16.2498 11.7261 16.0626 12.0751 15.7276C12.424 15.3927 12.63 14.9358 12.65 14.4525L13.0437 5ZM5.31125 7.5V13.75C5.31125 13.9986 5.41002 14.2371 5.58584 14.4129C5.76165 14.5887 6.00011 14.6875 6.24875 14.6875C6.49739 14.6875 6.73585 14.5887 6.91166 14.4129C7.08748 14.2371 7.18625 13.9986 7.18625 13.75V7.5C7.18625 7.25136 7.08748 7.0129 6.91166 6.83709C6.73585 6.66127 6.49739 6.5625 6.24875 6.5625C6.00011 6.5625 5.76165 6.66127 5.58584 6.83709C5.41002 7.0129 5.31125 7.25136 5.31125 7.5ZM9.99875 6.5625C10.2474 6.5625 10.4858 6.66127 10.6617 6.83709C10.8375 7.0129 10.9362 7.25136 10.9362 7.5V13.75C10.9362 13.9986 10.8375 14.2371 10.6617 14.4129C10.4858 14.5887 10.2474 14.6875 9.99875 14.6875C9.75011 14.6875 9.51165 14.5887 9.33584 14.4129C9.16002 14.2371 9.06125 13.9986 9.06125 13.75V7.5C9.06125 7.25136 9.16002 7.0129 9.33584 6.83709C9.51165 6.66127 9.75011 6.5625 9.99875 6.5625Z" fill="#004D43"/>
</svg>
