<svg width="50" height="50" viewBox="0 0 50 50" fill="none" xmlns="http://www.w3.org/2000/svg">
<path fill-rule="evenodd" clip-rule="evenodd" d="M25 50C38.8071 50 50 38.8071 50 25C50 11.1929 38.8071 0 25 0C11.1929 0 0 11.1929 0 25C0 38.8071 11.1929 50 25 50ZM26.7679 11.5084C25.3264 11.5486 23.8053 11.8956 22.7309 12.9164C21.8435 13.7372 21.3964 14.9318 21.296 16.1259C21.2654 16.9801 21.2698 17.8364 21.2742 18.6924C21.2774 19.3344 21.2807 19.9762 21.2692 20.6167C20.8746 20.6196 20.4788 20.6188 20.0828 20.618C19.5547 20.6169 19.0263 20.6157 18.5 20.6234C18.5 21.1345 18.5007 21.6464 18.5015 22.1587C18.503 23.1848 18.5044 24.2128 18.5 25.241C19.0263 25.2486 19.5547 25.2476 20.0828 25.2465C20.4788 25.2457 20.8746 25.2448 21.2692 25.2477C21.2781 27.2852 21.2765 29.3227 21.2749 31.3601C21.2728 33.9069 21.2707 36.4537 21.2893 39.0004C22.3722 38.9928 23.4528 38.9938 24.5338 38.9949C25.3446 38.9958 26.1556 38.9966 26.968 38.9937C26.9747 36.7015 26.973 34.4111 26.9713 32.1207C26.9696 29.8303 26.9679 27.5398 26.9746 25.2477C27.5208 25.2448 28.0671 25.2457 28.6133 25.2465C29.3416 25.2476 30.0699 25.2486 30.7982 25.241C31.0251 23.7061 31.2184 22.1579 31.3252 20.6033C30.6046 20.6 29.8839 20.6 29.1633 20.6C28.4426 20.6 27.722 20.6 27.0014 20.5966C27.0014 20.328 27.001 20.0594 27.0006 19.7908C26.9994 18.9851 26.9981 18.1795 27.0082 17.3737C27.1216 16.7529 27.7619 16.2791 28.3827 16.3193H31.3319C31.3386 14.7112 31.3386 13.1098 31.3319 11.5016C30.9516 11.5016 30.5713 11.5012 30.191 11.5008C29.0501 11.4996 27.909 11.4984 26.7679 11.5084Z" fill="white"/>
</svg>
