<svg width="14" height="18" viewBox="0 0 14 18" fill="none" xmlns="http://www.w3.org/2000/svg">
<path fill-rule="evenodd" clip-rule="evenodd" d="M2.45506 2.45506C3.70687 1.20326 5.40468 0.5 7.175 0.5C8.94532 0.5 10.6431 1.20326 11.8949 2.45506C13.1467 3.70687 13.85 5.40468 13.85 7.175C13.85 9.12827 13.0582 10.8294 11.891 12.4794C10.9931 13.7487 9.84343 15.026 8.62295 16.382C8.26955 16.7747 7.91022 17.1739 7.54934 17.5815C7.45443 17.6887 7.31812 17.75 7.17496 17.75C7.0318 17.75 6.8955 17.6886 6.80061 17.5814C6.44878 17.184 6.09852 16.7942 5.75387 16.4107C4.58948 15.1151 3.48908 13.8907 2.6082 12.6801C1.45977 11.1018 0.636145 9.48595 0.501359 7.66184C0.500453 7.64958 0.5 7.63729 0.5 7.625V7.175C0.5 5.40468 1.20326 3.70687 2.45506 2.45506ZM7.175 1.5C5.6699 1.5 4.22644 2.0979 3.16217 3.16217C2.0979 4.22644 1.5 5.6699 1.5 7.175V7.60619C1.6193 9.15847 2.32363 10.5894 3.4168 12.0918C4.26438 13.2566 5.31698 14.428 6.4733 15.7149C6.70339 15.9709 6.93759 16.2316 7.1751 16.4976C7.42284 16.2203 7.66696 15.949 7.90654 15.6828C9.11828 14.3362 10.2139 13.1186 11.0746 11.9019C12.1814 10.3372 12.85 8.8384 12.85 7.175C12.85 5.6699 12.2521 4.22644 11.1878 3.16217C10.1236 2.0979 8.6801 1.5 7.175 1.5ZM7.175 4.70833C6.52029 4.70833 5.89235 4.96818 5.42908 5.4308C4.96581 5.89342 4.70508 6.521 4.70417 7.1757C4.70348 7.66453 4.84781 8.14258 5.11889 8.54937C5.38997 8.95615 5.77562 9.27338 6.22705 9.46092C6.67847 9.64847 7.17538 9.69789 7.65491 9.60295C8.13443 9.508 8.57501 9.27295 8.92091 8.92754C9.26681 8.58212 9.50248 8.14187 9.5981 7.66248C9.69372 7.18309 9.64499 6.68611 9.45808 6.23442C9.27117 5.78273 8.95448 5.39664 8.54808 5.12499C8.14168 4.85333 7.66383 4.70833 7.175 4.70833ZM4.72247 4.7232C5.37324 4.07334 6.25532 3.70833 7.175 3.70833C7.86167 3.70833 8.53292 3.91202 9.1038 4.29361C9.67468 4.67521 10.1195 5.21757 10.3821 5.85206C10.6447 6.48656 10.7131 7.18468 10.5788 7.85809C10.4445 8.53149 10.1134 9.14993 9.62752 9.63514C9.14163 10.1203 8.52273 10.4505 7.84914 10.5839C7.17554 10.7173 6.47752 10.6478 5.84339 10.3844C5.20927 10.121 4.66753 9.67533 4.28674 9.10392C3.90595 8.5325 3.7032 7.86097 3.70417 7.1743C3.70546 6.25462 4.0717 5.37305 4.72247 4.7232Z" fill="black"/>
</svg>
