<svg width="51" height="13" viewBox="0 0 51 13" fill="none" xmlns="http://www.w3.org/2000/svg">
<path fill-rule="evenodd" clip-rule="evenodd" d="M0 6.5C0 5.94772 0.447715 5.5 1 5.5H49C49.5523 5.5 50 5.94772 50 6.5C50 7.05228 49.5523 7.5 49 7.5H1C0.447715 7.5 0 7.05228 0 6.5Z" fill="#004D43"/>
<path fill-rule="evenodd" clip-rule="evenodd" d="M43.2363 0.292893C43.6268 -0.0976311 44.2599 -0.0976311 44.6505 0.292893L50.1505 5.79289C50.541 6.18342 50.541 6.81658 50.1505 7.20711L44.6505 12.7071C44.2599 13.0976 43.6268 13.0976 43.2363 12.7071C42.8457 12.3166 42.8457 11.6834 43.2363 11.2929L48.0291 6.5L43.2363 1.70711C42.8457 1.31658 42.8457 0.683417 43.2363 0.292893Z" fill="#004D43"/>
</svg>
