<svg width="27" height="13" viewBox="0 0 27 13" fill="none" xmlns="http://www.w3.org/2000/svg">
<path fill-rule="evenodd" clip-rule="evenodd" d="M0 6.5C0 5.94772 0.447715 5.5 1 5.5H25C25.5523 5.5 26 5.94772 26 6.5C26 7.05228 25.5523 7.5 25 7.5H1C0.447715 7.5 0 7.05228 0 6.5Z" fill="black"/>
<path fill-rule="evenodd" clip-rule="evenodd" d="M19.2363 0.292893C19.6268 -0.0976311 20.2599 -0.0976311 20.6505 0.292893L26.1505 5.79289C26.541 6.18342 26.541 6.81658 26.1505 7.20711L20.6505 12.7071C20.2599 13.0976 19.6268 13.0976 19.2363 12.7071C18.8457 12.3166 18.8457 11.6834 19.2363 11.2929L24.0291 6.5L19.2363 1.70711C18.8457 1.31658 18.8457 0.683417 19.2363 0.292893Z" fill="black"/>
</svg>
