<svg width="30" height="30" viewBox="0 0 30 30" fill="none" xmlns="http://www.w3.org/2000/svg">
<path d="M18.7719 1.71839C18.8135 1.55843 18.9167 1.42144 19.059 1.3374C19.2013 1.25336 19.3711 1.22911 19.5313 1.26996C21.744 1.84627 23.7629 3.00258 25.3796 4.61954C26.9962 6.23651 28.1522 8.25558 28.7281 10.4684C28.769 10.6283 28.745 10.7979 28.6613 10.9402C28.5776 11.0825 28.4409 11.1859 28.2813 11.2278C28.2304 11.2423 28.1779 11.2496 28.125 11.2496C27.9868 11.2492 27.8526 11.2029 27.7435 11.1181C27.6344 11.0333 27.5564 10.9147 27.5219 10.7809C27.0002 8.78412 25.9559 6.96237 24.4966 5.50304C23.0373 4.04371 21.2155 2.99948 19.2188 2.47777C19.0591 2.43587 18.9225 2.3325 18.8388 2.19022C18.755 2.04795 18.731 1.87833 18.7719 1.71839ZM17.9688 7.47777C20.3125 8.10746 21.8922 9.68715 22.5219 12.0309C22.5564 12.1647 22.6344 12.2833 22.7435 12.3681C22.8526 12.4529 22.9868 12.4992 23.125 12.4996C23.1779 12.4996 23.2304 12.4923 23.2813 12.4778C23.4411 12.4349 23.5774 12.3304 23.6603 12.1872C23.7432 12.0439 23.7659 11.8737 23.7235 11.7137C22.9735 8.90121 21.0906 7.02621 18.2813 6.26996C18.1251 6.23976 17.9633 6.27023 17.8289 6.35516C17.6944 6.44008 17.5974 6.57307 17.5575 6.72704C17.5177 6.88101 17.5381 7.04437 17.6145 7.18385C17.6909 7.32333 17.8176 7.42844 17.9688 7.47777ZM29.9906 22.9028C29.7313 24.8699 28.7645 26.6752 27.2709 27.9813C25.7773 29.2874 23.8591 30.0049 21.875 29.9996C9.81252 29.9996 1.75581e-05 20.1871 1.75581e-05 8.12465C-0.00409367 6.14134 0.713905 4.22435 2.01991 2.73173C3.32591 1.23912 5.13059 0.272957 7.09689 0.0137072C7.49972 -0.0352664 7.90756 0.047768 8.25918 0.250341C8.6108 0.452914 8.8872 0.764092 9.04689 1.13714L12.3438 8.50277C12.467 8.78838 12.5172 9.10016 12.49 9.41002C12.4627 9.71988 12.3588 10.0181 12.1875 10.2778C12.1735 10.2981 12.1594 10.3184 12.1438 10.3371L8.83127 14.2762C8.77929 14.3625 8.74951 14.4603 8.7446 14.5609C8.7397 14.6616 8.75981 14.7618 8.80314 14.8528C10.0281 17.3606 12.6547 19.9668 15.1922 21.1918C15.2838 21.2343 15.3845 21.2536 15.4854 21.2479C15.5862 21.2421 15.6841 21.2116 15.7703 21.159L19.6563 17.859L19.7156 17.8137C19.9757 17.6419 20.2745 17.5377 20.5849 17.5104C20.8954 17.4831 21.2077 17.5337 21.4938 17.6575L28.8719 20.9637C29.2412 21.1244 29.549 21.3997 29.7496 21.749C29.9503 22.0982 30.0332 22.5028 29.986 22.9028H29.9906ZM28.3735 22.1028L20.9922 18.7965C20.9025 18.7589 20.8052 18.7431 20.7082 18.7504C20.6112 18.7577 20.5174 18.788 20.4344 18.8387L16.5625 22.1387L16.5047 22.1825C16.2355 22.3622 15.9243 22.4692 15.6015 22.493C15.2787 22.5168 14.9552 22.4567 14.6625 22.3184C11.85 20.9606 9.05158 18.1809 7.69377 15.4012C7.55412 15.1108 7.49169 14.7893 7.51249 14.4677C7.53329 14.1461 7.63662 13.8353 7.81252 13.5653C7.82658 13.5434 7.84221 13.5246 7.85783 13.5043L11.1688 9.56683C11.2184 9.48244 11.2475 9.38757 11.2537 9.28986C11.26 9.19216 11.2432 9.09435 11.2047 9.00433L7.90158 1.63871C7.85504 1.52452 7.77576 1.42666 7.67372 1.35743C7.57168 1.2882 7.45144 1.2507 7.32814 1.24964C7.30317 1.24809 7.27812 1.24809 7.25314 1.24964C5.58792 1.47029 4.06006 2.28988 2.95522 3.55518C1.85038 4.82049 1.2442 6.44487 1.25002 8.12465C1.25002 19.4965 10.5031 28.7496 21.875 28.7496C23.5548 28.7555 25.1792 28.1493 26.4445 27.0444C27.7098 25.9396 28.5294 24.4117 28.75 22.7465C28.7644 22.6125 28.7351 22.4773 28.6664 22.3613C28.5976 22.2453 28.4933 22.1546 28.3688 22.1028H28.3735Z" fill="#004D43"/>
</svg>
