<svg width="100" height="100" viewBox="0 0 100 100" fill="none" xmlns="http://www.w3.org/2000/svg">
<path fill-rule="evenodd" clip-rule="evenodd" d="M50 99C77.062 99 99 77.062 99 50C99 22.938 77.062 1 50 1C22.938 1 1 22.938 1 50C1 77.062 22.938 99 50 99ZM50 100C77.6142 100 100 77.6142 100 50C100 22.3858 77.6142 0 50 0C22.3858 0 0 22.3858 0 50C0 77.6142 22.3858 100 50 100Z" fill="white"/>
<path d="M75 50L37.5 71.6506L37.5 28.3494L75 50Z" fill="white"/>
<path fill-rule="evenodd" clip-rule="evenodd" d="M75 50L37.5 28.3494L37.5 71.6506L75 50ZM73 50L38.5 30.0814L38.5 69.9186L73 50Z" fill="white"/>
</svg>
