<svg width="208" height="82" viewBox="0 0 208 82" fill="none" xmlns="http://www.w3.org/2000/svg">
<mask id="mask0_46_1254" style="mask-type:alpha" maskUnits="userSpaceOnUse" x="0" y="0" width="208" height="82">
<path d="M206.511 80.4521H156.959V2H206.511V80.4521Z" stroke="#FEFEFE" stroke-width="2.57478" stroke-miterlimit="10"/>
<path d="M174.543 69.1336H167.166L165.005 75.6774H162.228L169.296 54.8732H172.537L179.636 75.6774H176.766L174.543 69.1336H174.543ZM167.722 67.0347H173.988L171.92 61.0465C171.652 60.2234 171.302 58.9579 170.87 57.2498H170.778C170.469 58.608 170.129 59.8633 169.759 61.0157L167.722 67.0346V67.0347Z" fill="#FEFEFE"/>
<path d="M194.729 60.7378V71.572C194.729 73.2595 194.771 74.6278 194.853 75.6773H192.445L192.291 73.2389H192.229C191.818 73.9797 191.19 74.6278 190.346 75.1834C189.503 75.7391 188.484 76.0168 187.29 76.0168C186.652 76.0168 186.051 75.9139 185.485 75.7081C184.919 75.5025 184.374 75.168 183.849 74.7051C183.324 74.2422 182.907 73.563 182.599 72.6678C182.29 71.7728 182.136 70.7079 182.136 69.4732V60.7379H184.852V68.9793C184.852 72.1689 185.963 73.7636 188.186 73.7636C189.029 73.7636 189.77 73.5166 190.408 73.0226C191.046 72.5289 191.499 71.9424 191.766 71.2634C191.931 70.8723 192.013 70.4094 192.013 69.8742V60.7378H194.729Z" fill="#FEFEFE"/>
<path d="M195.406 39.0009H195.741V41.2305C195.741 41.4363 195.746 41.5951 195.757 41.7069H195.455L195.44 41.3869H195.433C195.379 41.4936 195.298 41.5805 195.189 41.6479C195.079 41.7153 194.952 41.7488 194.807 41.7488C194.581 41.7488 194.393 41.6619 194.241 41.4878C194.09 41.3137 194.015 41.0881 194.015 40.8111C194.012 40.5113 194.092 40.2711 194.253 40.0907C194.414 39.9103 194.611 39.8201 194.842 39.8201C194.976 39.8201 195.092 39.8469 195.189 39.9002C195.285 39.9536 195.355 40.0197 195.398 40.0985H195.406V39.0009ZM195.406 40.9333V40.6132C195.406 40.5574 195.401 40.509 195.391 40.4682C195.365 40.3591 195.309 40.2675 195.221 40.1938C195.133 40.1201 195.029 40.0834 194.907 40.0834C194.736 40.0834 194.602 40.15 194.503 40.2835C194.404 40.417 194.354 40.5864 194.354 40.7923C194.354 40.9906 194.402 41.1545 194.497 41.2839C194.592 41.4135 194.726 41.4783 194.899 41.4783C195.013 41.4783 195.116 41.4422 195.208 41.3697C195.299 41.2973 195.36 41.1988 195.391 41.0743C195.401 41.0361 195.406 40.9892 195.406 40.9333H195.406Z" fill="#FEFEFE"/>
<path d="M197.052 41.7489H197.048C196.794 41.7489 196.583 41.6619 196.416 41.4878C196.248 41.3138 196.164 41.0844 196.164 40.7997C196.164 40.5 196.251 40.2617 196.425 40.0851C196.599 39.9085 196.817 39.8202 197.079 39.8202C197.343 39.8202 197.557 39.9079 197.721 40.0833C197.885 40.2585 197.967 40.486 197.967 40.7655C197.967 41.0857 197.875 41.3296 197.692 41.4974C197.509 41.6651 197.296 41.7489 197.052 41.7489ZM197.06 41.4974H197.064C197.224 41.4974 197.357 41.4294 197.464 41.2935C197.571 41.1574 197.624 40.9853 197.624 40.7768C197.624 40.5964 197.578 40.4339 197.485 40.289C197.392 40.1442 197.254 40.0719 197.071 40.0719C196.888 40.0719 196.749 40.143 196.652 40.2853C196.555 40.4275 196.507 40.5953 196.507 40.7884C196.507 40.9915 196.559 41.1606 196.663 41.2953C196.768 41.43 196.9 41.4974 197.06 41.4974Z" fill="#FEFEFE"/>
<path d="M199.144 41.7489H199.14C198.886 41.7489 198.675 41.6619 198.508 41.4878C198.34 41.3138 198.256 41.0844 198.256 40.7997C198.256 40.5 198.343 40.2617 198.517 40.0851C198.691 39.9085 198.909 39.8202 199.171 39.8202C199.435 39.8202 199.649 39.9079 199.813 40.0833C199.977 40.2585 200.059 40.486 200.059 40.7655C200.059 41.0857 199.967 41.3296 199.784 41.4974C199.601 41.6651 199.388 41.7489 199.144 41.7489ZM199.152 41.4974H199.155C199.315 41.4974 199.449 41.4294 199.556 41.2935C199.662 41.1574 199.716 40.9853 199.716 40.7768C199.716 40.5964 199.669 40.4339 199.577 40.289C199.484 40.1442 199.346 40.0719 199.163 40.0719C198.98 40.0719 198.84 40.143 198.744 40.2853C198.647 40.4275 198.599 40.5953 198.599 40.7884C198.599 40.9915 198.651 41.1606 198.755 41.2953C198.859 41.43 198.991 41.4974 199.152 41.4974Z" fill="#FEFEFE"/>
<path d="M200.484 41.7071V40.4378C200.484 40.2066 200.479 40.0148 200.469 39.8623H200.762L200.777 40.2245H200.789C200.83 40.1025 200.897 40.0046 200.991 39.9309C201.085 39.8572 201.189 39.8204 201.303 39.8204C201.324 39.8204 201.354 39.8229 201.395 39.8281V40.1445C201.349 40.1395 201.311 40.1368 201.281 40.1368C201.164 40.1368 201.065 40.1762 200.985 40.255C200.905 40.3337 200.854 40.4367 200.831 40.5637C200.823 40.6145 200.819 40.6666 200.819 40.7201V41.7072H200.484V41.7071Z" fill="#FEFEFE"/>
<path d="M201.604 41.6157L201.684 41.3641C201.829 41.4505 201.977 41.4937 202.13 41.4937C202.244 41.4937 202.332 41.4684 202.393 41.4174C202.454 41.3666 202.484 41.3006 202.484 41.2193C202.484 41.1405 202.459 41.0763 202.408 41.0268C202.357 40.9771 202.27 40.9296 202.145 40.8839C201.817 40.7644 201.653 40.5903 201.653 40.3617C201.653 40.2093 201.712 40.0809 201.829 39.9768C201.945 39.8726 202.099 39.8204 202.29 39.8204C202.473 39.8204 202.623 39.8586 202.739 39.9348L202.659 40.1751C202.537 40.1038 202.412 40.0682 202.282 40.0682C202.186 40.0682 202.111 40.0924 202.057 40.1408C202.004 40.189 201.977 40.2487 201.977 40.3199C201.977 40.3936 202.003 40.452 202.055 40.4952C202.107 40.5384 202.197 40.5853 202.324 40.6361C202.486 40.6972 202.608 40.7715 202.688 40.8592C202.768 40.9467 202.808 41.0567 202.808 41.1889C202.808 41.3566 202.747 41.4911 202.625 41.5929C202.503 41.6946 202.335 41.7453 202.122 41.7453C201.924 41.7453 201.751 41.7021 201.604 41.6157H201.604Z" fill="#FEFEFE"/>
<path d="M26.8123 45.7939H23.5187V41.0159C22.56 42.7322 21.2071 44.0543 19.4598 44.9744C17.7126 45.8944 15.7875 46.3506 13.6844 46.3506C11.7051 46.3506 9.74144 45.9022 7.79315 45.0053C5.84486 44.1086 4.08203 42.7709 2.50494 40.9774C1.94829 40.3588 1.42245 39.377 0.927708 38.0163C0.309284 36.3154 0 34.6223 0 32.9212C0 31.3751 0.324835 29.7745 0.974216 28.1045C1.53087 26.7129 2.08767 25.762 2.64418 25.2363C4.46878 23.288 6.27783 21.9118 8.07162 21.0924C9.86541 20.2728 11.7053 19.8632 13.5919 19.8632C15.7257 19.8632 17.6817 20.3115 19.46 21.2083C21.2382 22.1052 22.5911 23.4505 23.5188 25.2441V20.4197H26.8124V45.7941L26.8123 45.7939ZM3.43251 33.1995C3.43251 35.9442 4.45309 38.2715 6.49425 40.1888C8.53526 42.0984 10.9321 43.057 13.6844 43.057C16.344 43.057 18.6479 42.0828 20.5962 40.1423C22.5445 38.194 23.5187 35.8977 23.5187 33.2459C23.5187 30.4394 22.5678 28.0582 20.6659 26.0943C18.764 24.1383 16.4059 23.1564 13.5917 23.1564C10.8082 23.1564 8.41935 24.1383 6.4247 26.0943C4.43005 28.058 3.43265 30.424 3.43265 33.1995H3.43251Z" fill="#FEFEFE"/>
<path d="M55.0164 45.7941H51.7692V41.8511C50.965 43.382 49.8363 44.5107 48.3829 45.2452C46.9294 45.9797 45.2595 46.3509 43.3729 46.3509C41.641 46.3509 40.0795 46.0106 38.6878 45.3303C37.2961 44.6499 35.889 43.4823 34.4664 41.8124C33.7551 41.0701 33.2758 40.0419 33.0284 38.7354C32.7811 37.4211 32.6572 35.7743 32.6572 33.8028V20.4198H36.09V33.7952C36.09 35.4032 36.1751 36.5708 36.3452 37.2898C36.5152 38.0165 36.8013 38.72 37.2035 39.4003C38.6261 41.8357 40.8371 43.0573 43.837 43.0573C46.4346 43.0573 48.5067 42.0213 50.0529 39.9571C50.6405 39.1221 51.0425 38.2098 51.2589 37.228C51.4753 36.2384 51.5837 35.0942 51.5837 33.7952V20.4198H55.0165V45.7942L55.0164 45.7941Z" fill="#FEFEFE"/>
<path d="M60.8613 20.4196H64.1085V24.0842C64.7579 22.6306 65.7321 21.5638 67.031 20.8834C68.3299 20.203 69.8144 19.8629 71.4843 19.8629V23.2492C69.8143 23.2492 68.2834 23.8367 66.8919 25.012C65.8094 25.9397 65.1059 26.8675 64.7812 27.7952C64.4564 28.723 64.2941 29.9908 64.2941 31.599V45.7938H60.8613V20.4194V20.4196Z" fill="#FEFEFE"/>
<path d="M97.1834 45.7941H93.9362V41.8511C93.132 43.382 92.0033 44.5107 90.5499 45.2452C89.0964 45.9797 87.4265 46.3509 85.5399 46.3509C83.808 46.3509 82.2465 46.0106 80.8548 45.3303C79.4631 44.6499 78.056 43.4823 76.6334 41.8124C75.9221 41.0701 75.4428 40.0419 75.1954 38.7354C74.9481 37.4211 74.8242 35.7743 74.8242 33.8028V20.4198H78.257V33.7952C78.257 35.4032 78.3421 36.5708 78.5122 37.2898C78.6822 38.0165 78.9683 38.72 79.3705 39.4003C80.7931 41.8357 83.0041 43.0573 86.0039 43.0573C88.6016 43.0573 90.6737 42.0213 92.2199 39.9571C92.8075 39.1221 93.2095 38.2098 93.4259 37.228C93.6423 36.2384 93.7507 35.0942 93.7507 33.7952V20.4198H97.1835V45.7942L97.1834 45.7941Z" fill="#FEFEFE"/>
<path d="M103.029 20.4196H106.276V23.7131C106.894 22.4452 107.799 21.4865 108.99 20.8371C110.18 20.1876 111.533 19.8629 113.049 19.8629C114.749 19.8629 116.28 20.1875 117.641 20.8371C119.002 21.4865 120.208 22.4452 121.259 23.7131L121.909 24.6873L122.419 23.7131C123.285 22.5071 124.452 21.5638 125.921 20.8834C127.39 20.203 128.898 19.8629 130.444 19.8629C131.805 19.8629 133.135 20.1798 134.433 20.8138C135.732 21.4478 137.031 22.4141 138.33 23.713C139.258 24.6407 139.907 25.7851 140.278 27.1458C140.557 28.1973 140.696 29.589 140.696 31.3207V45.7938H137.263V31.6455C137.263 30.4395 137.186 29.4111 137.031 28.5606C136.876 27.7102 136.536 26.9138 136.011 26.1717C134.588 24.1615 132.67 23.1565 130.258 23.1565C127.877 23.1565 126.006 24.1151 124.646 26.0326C124.182 26.682 123.888 27.4628 123.764 28.3751C123.64 29.2874 123.579 30.3776 123.579 31.6455V45.7938H120.146V31.2743C120.146 30.161 120.069 29.2332 119.914 28.4909C119.759 27.7488 119.434 26.9911 118.94 26.2179C117.517 24.1768 115.615 23.1562 113.234 23.1562C112.09 23.1562 111.046 23.3804 110.103 23.8287C109.159 24.2773 108.348 24.9498 107.667 25.8467C107.173 26.589 106.848 27.3854 106.693 28.2358C106.538 29.0861 106.461 30.099 106.461 31.274V45.7935H103.028V20.4191L103.029 20.4196Z" fill="#FEFEFE"/>
<path d="M41.7362 81.1801H38.4891V76.5413C35.9842 80.0049 32.5669 81.7368 28.2373 81.7368C26.3818 81.7368 24.588 81.3269 22.8562 80.5076C21.1243 79.688 19.3772 78.3581 17.6145 76.5027C16.934 75.9151 16.3002 74.8559 15.7124 73.3097C15.1249 71.7634 14.8311 70.132 14.8311 68.4003C14.8311 64.666 16.1687 61.5426 18.8437 59.0221C21.5187 56.5095 24.7273 55.2494 28.4691 55.2494C30.4483 55.2494 32.3271 55.6746 34.1054 56.5249C35.8835 57.3755 37.2831 58.6047 38.3034 60.2127V46.8994H41.7362V81.1803V81.1801ZM28.1909 58.5426C25.4849 58.5426 23.1499 59.4935 21.194 61.3878C19.2379 63.2897 18.2638 65.6091 18.2638 68.3536C18.2638 71.1293 19.2303 73.5027 21.1708 75.482C23.1113 77.4535 25.4849 78.4431 28.2836 78.4431C31.0205 78.4431 33.3786 77.4535 35.3501 75.482C37.3215 73.5027 38.3034 71.1293 38.3034 68.3536C38.3034 65.6089 37.3138 63.2896 35.3269 61.3878C33.3399 59.4935 30.9586 58.5426 28.1909 58.5426Z" fill="#FEFEFE"/>
<path d="M73.0951 68.3074C73.0951 71.949 71.8116 75.0957 69.2449 77.7553C66.6781 80.4071 63.5701 81.737 59.9209 81.737C56.2717 81.737 53.1404 80.4613 50.5272 77.9176C47.914 75.3663 46.6074 72.2737 46.6074 68.6323C46.6074 64.9289 47.8986 61.7746 50.4808 59.1614C53.0632 56.5558 56.2098 55.2493 59.9209 55.2493C63.4463 55.2493 66.5234 56.548 69.152 59.1381C71.7807 61.7357 73.095 64.7897 73.095 68.3073L73.0951 68.3074ZM50.0402 68.6323C50.0402 71.346 50.9989 73.6577 52.9162 75.5751C54.8337 77.4846 57.1686 78.4433 59.9209 78.4433C62.704 78.4433 65.0235 77.4536 66.8791 75.4822C68.7346 73.5029 69.6625 71.114 69.6625 68.3074C69.6625 66.8849 69.4227 65.6169 68.9434 64.4882C68.4641 63.3673 67.7142 62.3079 66.6936 61.3183C64.7453 59.4704 62.4878 58.5427 59.921 58.5427C57.1376 58.5427 54.7951 59.5245 52.8932 61.4806C50.9913 63.4443 50.0404 65.8257 50.0404 68.6321L50.0402 68.6323Z" fill="#FEFEFE"/>
<path d="M103.479 68.3074C103.479 71.949 102.195 75.0957 99.6287 77.7553C97.0619 80.4071 93.9539 81.737 90.3047 81.737C86.6555 81.737 83.5242 80.4613 80.911 77.9176C78.2977 75.3663 76.9912 72.2737 76.9912 68.6323C76.9912 64.9289 78.2823 61.7746 80.8646 59.1614C83.447 56.5558 86.5936 55.2493 90.3047 55.2493C93.8301 55.2493 96.9072 56.548 99.5358 59.1381C102.164 61.7357 103.479 64.7897 103.479 68.3073L103.479 68.3074ZM80.424 68.6323C80.424 71.346 81.3827 73.6577 83.3 75.5751C85.2175 77.4846 87.5524 78.4433 90.3047 78.4433C93.0878 78.4433 95.4073 77.4536 97.2629 75.4822C99.1184 73.5029 100.046 71.114 100.046 68.3074C100.046 66.8849 99.8065 65.6169 99.3272 64.4882C98.8479 63.3673 98.098 62.3079 97.0774 61.3183C95.1291 59.4704 92.8715 58.5427 90.3048 58.5427C87.5214 58.5427 85.1789 59.5245 83.277 61.4806C81.375 63.4443 80.4241 65.8257 80.4241 68.6321L80.424 68.6323Z" fill="#FEFEFE"/>
<path d="M108.35 55.8057H111.597V59.4703C112.246 58.0167 113.22 56.9499 114.519 56.2695C115.818 55.5891 117.303 55.249 118.973 55.249V58.6353C117.303 58.6353 115.772 59.2228 114.38 60.3981C113.298 61.3259 112.594 62.2536 112.27 63.1813C111.945 64.1091 111.782 65.3769 111.782 66.9851V81.1799H108.35V55.8055V55.8057Z" fill="#FEFEFE"/>
<path d="M123.659 73.6653C123.659 74.964 124.099 76.0851 124.98 77.0284C125.862 77.9716 126.952 78.4432 128.251 78.4432C129.519 78.4432 130.578 78.0489 131.428 77.2603C132.279 76.4795 132.704 75.4665 132.704 74.2295C132.704 72.8379 132.209 71.7478 131.22 70.9438C130.447 70.3252 129.387 69.8149 128.042 69.4129C126.697 69.0109 125.808 68.7248 125.375 68.5393C124.478 68.1681 123.728 67.6966 123.125 67.1244C122.522 66.5523 122.043 65.8486 121.687 65.0138C121.331 64.1864 121.154 63.2897 121.154 62.331C121.154 60.2976 121.857 58.6045 123.264 57.2591C124.671 55.9216 126.411 55.249 128.483 55.249C130.369 55.249 132.008 55.9294 133.4 57.29C134.792 58.6509 135.487 60.2589 135.487 62.1145H132.055C132.055 61.032 131.683 60.1662 130.941 59.5167C130.199 58.8673 129.256 58.5424 128.111 58.5424C127.122 58.5424 126.287 58.8827 125.607 59.563C124.926 60.2434 124.586 61.0707 124.586 62.0603C124.586 63.2973 125.05 64.2484 125.978 64.9286C126.596 65.3615 127.617 65.81 129.039 66.2738C131.328 67.0161 132.982 67.82 134.003 68.6783C135.426 69.9153 136.137 71.5852 136.137 73.6805C136.137 76.054 135.371 77.9945 133.84 79.4944C132.31 80.9866 130.338 81.7366 127.926 81.7366C125.792 81.7366 123.975 80.9402 122.475 79.3476C120.975 77.7549 120.226 75.8608 120.226 73.6651H123.658L123.659 73.6653Z" fill="#FEFEFE"/>
</mask>
<g mask="url(#mask0_46_1254)">
<rect x="-137.967" y="-68.3016" width="430.598" height="221.45" fill="black"/>
</g>
</svg>
