<svg width="215" height="37" viewBox="0 0 215 37" fill="none" xmlns="http://www.w3.org/2000/svg">
<g clip-path="url(#clip0_46_1238)">
<path d="M31.007 29.494C31.007 34.705 28.0981 37 22.6131 37H0.435043L1.81204 32.005H22.463C24.262 32.005 25.2101 31.511 25.2101 29.494V28.937C25.2101 26.921 24.263 26.426 22.463 26.426H8.39204C2.90604 26.426 -0.00195312 24.132 -0.00195312 18.92V18.692C-0.00195312 13.481 2.90604 11.186 8.39204 11.186H29.8631L28.487 16.181H8.54205C6.74305 16.181 5.79504 16.675 5.79504 18.692V18.92C5.79504 20.936 6.74205 21.431 8.54205 21.431H22.6131C28.0991 21.431 31.007 23.725 31.007 28.937V29.494Z" fill="black"/>
<path d="M65.4339 37H45.3019C39.6229 37 36.4619 34.477 36.4619 29.049V19.138C36.4619 13.71 39.6219 11.187 45.3019 11.187H65.2859L63.9069 16.182H45.4529C43.6059 16.182 42.2609 17.015 42.2609 19.138V29.049C42.2609 31.172 43.6059 32.006 45.4529 32.006H64.0599L65.4339 37Z" fill="black"/>
<path d="M95.9992 26.072H76.3742V37H70.5762V11.187H76.3742V21.168H95.9992V11.187H101.796V37H95.9992V26.072Z" fill="black"/>
<path d="M176.32 37H156.188C150.509 37 147.348 34.477 147.348 29.049V19.138C147.348 13.71 150.508 11.187 156.188 11.187H176.172L174.793 16.182H156.339C154.492 16.182 153.147 17.015 153.147 19.138V29.049C153.147 31.172 154.492 32.006 156.339 32.006H174.946L176.32 37Z" fill="black"/>
<path d="M108.572 29.049V11.187H114.37V29.049C114.37 31.172 115.715 32.006 117.562 32.006H132.161C134.008 32.006 135.353 31.173 135.353 29.049V11.187H141.151V29.049C141.151 34.477 137.992 37 132.311 37H117.412C111.732 37 108.572 34.478 108.572 29.049Z" fill="black"/>
<path d="M209.171 29.049V19.138C209.171 17.015 207.826 16.182 205.979 16.182H189.365C187.518 16.182 186.173 17.015 186.173 19.138V29.049C186.173 31.172 187.518 32.006 189.365 32.006H205.979C207.827 32.006 209.171 31.173 209.171 29.049ZM206.129 37H189.215C183.536 37 180.375 34.477 180.375 29.049V19.138C180.375 13.71 183.535 11.187 189.215 11.187H206.129C211.808 11.187 214.969 13.71 214.969 19.138V29.049C214.969 34.477 211.808 37 206.129 37Z" fill="black"/>
<path d="M120.499 0.375H129.223L127.39 7.48H122.332L120.499 0.375Z" fill="black"/>
<path d="M132.421 0.375H139.85L135.352 7.48H130.102L132.421 0.375Z" fill="black"/>
<path d="M109.872 0.375H117.301L119.619 7.48H114.37L109.872 0.375Z" fill="black"/>
</g>
<defs>
<clipPath id="clip0_46_1238">
<rect width="215" height="37" fill="white"/>
</clipPath>
</defs>
</svg>
