<svg width="229" height="67" viewBox="0 0 229 67" fill="none" xmlns="http://www.w3.org/2000/svg">
<path fill-rule="evenodd" clip-rule="evenodd" d="M189.565 50.2978L197.109 16.761H207.501L213.651 32.3599L214.753 35.1823L215.319 32.5905L218.559 16.761H229L221.673 50.2978H211.232L205.048 34.8182L203.907 31.8687L203.388 34.5875L199.956 50.2978H189.565Z" fill="black"/>
<path fill-rule="evenodd" clip-rule="evenodd" d="M175.48 4.49008C181.373 4.65855 189.852 7.50826 195.228 9.77351C195.316 9.80979 196.443 8.1912 197.243 6.58686C197.734 5.60716 197.85 4.94105 198.124 4.1661C198.554 2.94276 198.251 3.69439 198.812 2.09135C199.232 0.900409 199.293 -0.0520842 199.341 0.00234403C199.662 0.372974 201.133 1.01963 202.052 2.14189C202.14 2.25075 202.29 2.52289 202.492 2.79244C202.543 2.85983 202.588 2.97645 202.219 3.82657C202.139 4.01577 202.105 4.43435 201.837 5.04732C201.449 5.93631 200.976 6.85253 200.328 8.02662C200.063 8.51129 199.584 9.27977 199.237 9.82275C199.205 9.87459 197.009 12.2681 197.237 12.964C197.731 14.4841 198.419 15.7982 198.903 16.7572C201.431 21.7672 202.459 27.8592 201.492 34.3673C200.199 43.0849 196.916 47.754 190.497 52.9027C188.224 54.7247 184.509 56.7606 181.237 57.7883C177.457 58.9869 173.618 59.9904 169.736 60.7948C163.965 62.0168 156.301 63.5564 150.393 64.8419C146.845 65.6143 144.086 66.4164 142.275 66.8233C141.883 66.9115 143.544 64.632 143.999 63.8674C144.652 62.7788 146.452 61.2704 147.064 59.1425C148.548 53.9744 149.98 47.6206 149.531 43.9C149.116 40.4347 148.2 43.0628 149.704 32.9327C151.211 22.8026 158.915 4.01707 175.48 4.49008Z" fill="#004D43"/>
<path fill-rule="evenodd" clip-rule="evenodd" d="M23.2329 37.6459H33.6053C32.3327 42.0623 29.9936 45.49 26.6113 47.925C23.229 50.36 19.1974 51.5795 14.3209 51.5795C8.85733 51.5795 4.89962 50.0049 2.46072 46.8585C0.0179321 43.7094 -0.606697 39.3889 0.589428 33.9123C1.78296 28.4488 4.27759 24.136 8.06553 20.9792C11.8522 17.8223 16.4293 16.2426 21.7879 16.2426C26.7202 16.2426 30.35 17.418 32.671 19.7623C34.9919 22.1066 35.7436 25.463 35.1319 29.8121H24.6415C24.8605 28.1041 24.5767 26.8082 23.7953 25.936C23.0139 25.0639 21.5236 24.6207 19.7676 24.6207C17.6242 24.6207 16.0665 25.3917 14.6591 26.9287C13.2531 28.4669 12.206 30.7996 11.5269 33.9123C10.8608 36.9603 10.9295 39.2683 11.7278 40.8325C12.5261 42.3941 14.0306 43.1768 16.2362 43.1768C17.93 43.1768 19.384 42.6986 20.5827 41.7461C21.7879 40.7884 22.673 39.42 23.2329 37.6459ZM34.7535 50.5259L42.2439 16.9891L53.1956 17.1083L47.6504 41.6191L57.3244 41.5932L52.1822 50.2317L34.7535 50.5259ZM73.2083 39.1711H80.0818L79.2175 27.5637L73.2083 39.1711ZM56.6207 50.6451L75.9453 17.1083H87.0318L91.6971 50.6451H80.8386L80.5341 46.2053H69.6822L67.3871 50.6451H56.6207ZM94.1697 39.8748L104.6 40.0822C104.625 41.2925 105.19 41.9625 105.842 42.4913C106.496 43.0226 107.589 43.2908 109.115 43.2908C110.397 43.2908 111.455 43.0705 112.275 42.6429C113.102 42.2126 113.602 41.6126 113.768 40.8558C114.032 39.6429 112.712 38.6437 109.807 37.8921C109.226 37.743 108.775 37.6342 108.471 37.5525C106.096 36.9253 104.217 36.3357 102.846 35.8134C101.47 35.2925 100.485 34.8065 99.9157 34.3426C98.7974 33.4316 98.0613 32.3067 97.6907 31.0225C97.3187 29.733 97.311 28.2544 97.6712 26.6008C98.3969 23.2807 100.244 20.663 103.202 18.767C106.159 16.8711 109.872 15.9199 114.331 15.9199C118.71 15.9199 121.97 16.8271 124.086 18.64C126.202 20.4556 127.062 23.0565 126.645 26.4375H116.253C116.296 25.4565 116.012 24.723 115.403 24.2384C114.794 23.7537 113.82 23.5049 112.49 23.5049C111.32 23.5049 110.402 23.6993 109.754 24.0738C109.106 24.4496 108.689 25.0315 108.519 25.8064C108.278 26.9079 109.574 27.8332 112.403 28.5797C112.648 28.6445 112.837 28.7067 112.967 28.7378C113.376 28.835 114.006 29.0008 114.832 29.216C118.579 30.1931 120.969 31.1054 122.017 31.9063C123.308 32.8925 124.171 34.016 124.589 35.2743C125.006 36.5353 125.034 38.0256 124.66 39.7388C123.852 43.4412 121.911 46.2896 118.848 48.2762C115.784 50.2628 111.793 51.2555 106.889 51.2555C102.368 51.2555 98.9995 50.2628 96.7861 48.2762C94.5727 46.2896 93.7018 43.4865 94.1697 39.8748ZM126.897 40.0394L137.71 40.1936C137.736 41.4066 138.082 42.2813 138.735 42.8113C139.39 43.3427 140.482 43.6109 142.009 43.6109C143.29 43.6109 144.346 43.3906 145.169 42.963C145.994 42.5327 146.33 41.9327 146.497 41.1759C146.76 39.9655 145.44 38.9664 142.536 38.2148C141.954 38.0631 141.503 37.9543 141.2 37.8752C138.825 37.2454 136.945 36.6558 135.575 36.1361C134.199 35.6152 133.214 35.1266 132.644 34.6627C131.526 33.7516 130.788 32.6268 130.419 31.3425C130.047 30.0531 130.037 28.5745 130.398 26.9209C131.123 23.6021 132.969 20.9843 135.929 19.0884C138.885 17.1925 142.598 16.2413 147.058 16.2413C151.437 16.2413 154.695 17.1484 156.81 18.9614C158.929 20.7757 159.787 23.3779 159.369 26.7589H148.979C149.022 25.7779 148.738 25.0444 148.129 24.5598C147.521 24.0751 146.546 23.8276 145.216 23.8276C144.047 23.8276 143.13 24.022 142.48 24.3965C141.832 24.7723 141.415 25.3542 141.247 26.1291C141.006 27.2319 142.3 28.1559 145.13 28.9036C145.375 28.9684 145.565 29.0319 145.695 29.0618C146.105 29.1576 146.736 29.3248 147.56 29.5412C151.306 30.5183 153.697 31.2752 154.746 32.076C156.034 33.0622 156.899 34.1858 157.317 35.4441C157.734 36.705 157.763 38.1953 157.388 39.9085C156.581 43.6109 154.639 46.4593 151.577 48.446C148.512 50.4326 144.521 51.4253 139.617 51.4253C135.097 51.4253 131.728 50.4326 129.513 48.446C127.298 46.4593 126.429 43.6485 126.897 40.0394Z" fill="black"/>
<path fill-rule="evenodd" clip-rule="evenodd" d="M158.193 50.6089L165.522 17.072H192.768L191.011 25.1118H174.714L173.739 29.575H187.516L185.835 37.2701H172.058L170.924 42.4615H187.893L186.114 50.6089H158.193Z" fill="white"/>
</svg>
